<svg width="30" height="30" viewBox="0 0 30 30" fill="none" xmlns="http://www.w3.org/2000/svg">
<path d="M12.0729 11.8861C12.0729 10.4709 11.1101 10.4709 11.1101 10.4709H10.6003H7.14917V13.5075H10.8646C11.5066 13.5072 12.0729 13.3018 12.0729 11.8861Z" fill="#24A05A"/>
<path d="M11.1104 15.6047H7.14917V19.2416H10.9275C11.4959 19.2253 12.5449 19.0473 12.5449 17.4738C12.5449 15.5857 11.1104 15.6047 11.1104 15.6047Z" fill="#24A05A"/>
<path d="M21.251 13.5071C19.1491 13.5071 18.856 15.6048 18.856 15.6048H23.326C23.3263 15.6048 23.353 13.5071 21.251 13.5071Z" fill="#24A05A"/>
<path d="M15 0C6.7157 0 0 6.71601 0 15C0 23.284 6.7157 30 15 30C23.2843 30 30 23.284 30 15C30 6.71601 23.2843 0 15 0ZM18.2704 8.85361H23.8849V10.5293H18.2704V8.85361ZM15.4327 17.6428C15.4327 21.7961 11.1103 21.6595 11.1103 21.6595H7.14905H7.03274H4.02905V8.05197H7.03274H7.14905H11.11C13.262 8.05197 14.9607 9.24 14.9607 11.675C14.9607 14.1103 12.8842 14.2647 12.8842 14.2647C15.6215 14.2647 15.4327 17.6428 15.4327 17.6428ZM21.2777 19.7889C23.5396 19.7889 23.4595 18.325 23.4595 18.325H25.8543C25.8543 22.2101 21.198 21.944 21.198 21.944C15.6101 21.944 15.9695 16.742 15.9695 16.742C15.9695 16.742 15.9652 11.5142 21.1973 11.5142C26.7054 11.5142 25.9341 17.4206 25.9341 17.4206H18.883C18.883 19.9492 21.2777 19.7889 21.2777 19.7889Z" fill="#24A05A"/>
</svg>
