<svg width="30" height="30" viewBox="0 0 30 30" fill="none" xmlns="http://www.w3.org/2000/svg">
<path d="M27.9879 7.47069C26.6465 5.17246 24.8271 3.35294 22.529 2.01174C20.2307 0.670466 17.7215 0 14.9999 0C12.2785 0 9.76858 0.670671 7.47069 2.01174C5.17246 3.35288 3.35308 5.17246 2.01174 7.47069C0.670603 9.76885 0 12.2785 0 14.9995C0 18.268 0.953606 21.2071 2.8613 23.8176C4.76878 26.4284 7.23297 28.2349 10.2537 29.2374C10.6053 29.3027 10.8656 29.2568 11.0348 29.1008C11.2041 28.9447 11.2887 28.7492 11.2887 28.5151C11.2887 28.4761 11.2853 28.1247 11.2788 27.4605C11.2721 26.7963 11.269 26.2169 11.269 25.7225L10.8197 25.8002C10.5333 25.8527 10.172 25.8749 9.73574 25.8686C9.29971 25.8626 8.84705 25.8169 8.37839 25.7319C7.90952 25.6477 7.47342 25.4524 7.06975 25.1464C6.66628 24.8404 6.37986 24.4399 6.21055 23.9454L6.01524 23.496C5.88506 23.1968 5.68011 22.8644 5.40012 22.5C5.12012 22.1354 4.83698 21.8881 4.55056 21.7579L4.41381 21.6601C4.32269 21.595 4.23814 21.5165 4.15995 21.4255C4.08183 21.3344 4.02334 21.2433 3.98428 21.1521C3.94515 21.0607 3.97758 20.9858 4.0819 20.9271C4.18622 20.8683 4.37475 20.8398 4.64832 20.8398L5.03879 20.8981C5.29922 20.9503 5.62135 21.1062 6.0056 21.3668C6.38964 21.6272 6.70534 21.9656 6.95277 22.3821C7.2524 22.9161 7.61339 23.323 8.03676 23.603C8.4598 23.883 8.88632 24.0227 9.31592 24.0227C9.74552 24.0227 10.1166 23.9902 10.4292 23.9254C10.7415 23.8603 11.0345 23.7624 11.308 23.6323C11.4252 22.7595 11.7443 22.089 12.2649 21.6204C11.5228 21.5424 10.8556 21.4249 10.263 21.2688C9.67075 21.1124 9.05871 20.8586 8.4273 20.5067C7.79556 20.1553 7.27148 19.7189 6.85495 19.1983C6.43834 18.6775 6.09644 17.9937 5.82972 17.1475C5.56286 16.3011 5.4294 15.3246 5.4294 14.2179C5.4294 12.6421 5.94382 11.3012 6.97247 10.1943C6.49061 9.00966 6.5361 7.68159 7.10908 6.21027C7.48669 6.09295 8.04668 6.18099 8.78877 6.47385C9.531 6.76684 10.0744 7.01783 10.4196 7.22592C10.7648 7.43395 11.0414 7.61024 11.2497 7.75321C12.4609 7.4148 13.7108 7.24556 14.9997 7.24556C16.2887 7.24556 17.5388 7.4148 18.7501 7.75321L19.4922 7.28469C19.9997 6.97206 20.599 6.68557 21.2887 6.42514C21.9788 6.16485 22.5065 6.09316 22.8713 6.21048C23.457 7.68186 23.5092 9.00986 23.0272 10.1946C24.0558 11.3014 24.5704 12.6427 24.5704 14.2181C24.5704 15.3248 24.4365 16.3043 24.17 17.1573C23.9032 18.0104 23.5584 18.6935 23.1353 19.2081C22.7118 19.7226 22.1844 20.1556 21.553 20.5069C20.9215 20.8585 20.3092 21.1123 19.7169 21.2687C19.1244 21.4251 18.4572 21.5426 17.7151 21.6207C18.3919 22.2064 18.7304 23.131 18.7304 24.3939V28.5146C18.7304 28.7487 18.8118 28.9441 18.9748 29.1003C19.1375 29.2562 19.3945 29.3021 19.7461 29.2368C22.7672 28.2344 25.2314 26.4278 27.1388 23.8171C29.0461 21.2066 30 18.2674 30 14.9989C29.9993 12.2783 29.3284 9.76885 27.9879 7.47069Z" fill="#24A05A"/>
</svg>
