<svg width="678" height="180" viewBox="0 0 678 180" fill="none" xmlns="http://www.w3.org/2000/svg">
<path d="M561 173L584.633 104.75M6.5 173H615.448C617.575 173 619.469 171.655 620.169 169.646L670.268 25.9683C671.21 23.2663 669.696 20.3263 666.95 19.5231L623.57 6.83657C621.011 6.08808 618.314 7.47974 617.442 9.99951L584.633 104.75M584.633 104.75L637.633 120.25M592.5 81.5L645.5 97M600.607 58.25L653.607 73.75" stroke="#24A05A" stroke-width="13" stroke-linecap="round" stroke-linejoin="round"/>
<path d="M637.5 174C653.792 174 667 160.792 667 144.5C667 128.208 653.792 115 637.5 115C621.208 115 608 128.208 608 144.5C608 160.792 621.208 174 637.5 174Z" fill="#24A05A"/>
</svg>
