<svg width="57" height="79" viewBox="0 0 57 79" fill="none" xmlns="http://www.w3.org/2000/svg">
<path d="M5.72607 0H9.2749V3.51797H12.546V0H16.0948V10.6465H12.546V7.09766H9.30576V10.6465H5.72607V0ZM20.7854 3.54883H17.6532V0H27.4819V3.54883H24.3343V10.6465H20.7854V3.54883ZM29.0403 0H32.7589L35.0425 3.74941L37.3261 0H41.0446V10.6465H37.4958V5.36953L35.0116 9.19609L32.5274 5.36953V10.6465H29.0403V0ZM42.8036 0H46.3524V7.12852H51.3825V10.6465H42.8036" fill="black"/>
<path d="M5.60205 72.6738L0.510254 15.5222H56.4892L51.3974 72.6429L28.4534 78.9999" fill="#E44D26"/>
<path d="M28.5 74.1396V20.2129H51.3822L47.0156 68.9707" fill="#F16529"/>
<path d="M10.9102 27.2025H28.5V34.2076H18.5941L19.2422 41.3824H28.5V48.372H12.8234L10.9102 27.2025ZM13.132 51.89H20.168L20.6617 57.491L28.5 59.5894V66.9031L14.1195 62.8914" fill="#EBEBEB"/>
<path d="M46.0282 27.2025H28.4692V34.2076H45.3802L46.0282 27.2025ZM44.7476 41.3824H28.4692V48.3875H37.1099L36.2921 57.491L28.4692 59.5894V66.8722L42.8189 62.8914" fill="white"/>
</svg>
