<svg width="436" height="376" viewBox="0 0 436 376" fill="none" xmlns="http://www.w3.org/2000/svg">
<path d="M428.5 318L409 121C403 129.4 139.167 135.5 8 137.5V188.5L28 223.5L64.5 256L57 312L74.5 305.5L106 351.5L115 368L122.5 360.5H145L167 351.5L180.5 360.5V336L428.5 318Z" stroke="#DB9D47" stroke-width="15" stroke-linecap="round" stroke-linejoin="round"/>
<path d="M186.333 118.5C186.333 71.7529 224.253 33.8333 271 33.8333C317.747 33.8333 355.667 71.7529 355.667 118.5C355.667 144.902 340.869 177.643 322.417 207.856C304.168 237.734 283.197 263.799 272.466 276.512C272.007 277.056 271.475 277.245 271 277.245C270.525 277.245 269.993 277.056 269.534 276.512C258.803 263.799 237.831 237.734 219.583 207.856C201.131 177.643 186.333 144.902 186.333 118.5ZM230.583 118.5C230.583 140.812 248.688 158.917 271 158.917C293.312 158.917 311.417 140.812 311.417 118.5C311.417 96.1878 293.312 78.0833 271 78.0833C248.688 78.0833 230.583 96.1878 230.583 118.5Z" fill="white" stroke="#AF414A" stroke-width="15" stroke-linecap="round" stroke-linejoin="round"/>
</svg>
