<svg width="44" height="75" viewBox="0 0 44 75" fill="none" xmlns="http://www.w3.org/2000/svg">
<path d="M35.5385 0H8.46154C3.79077 0 0 3.81818 0 8.52273V66.4773C0 71.1818 3.79077 75 8.46154 75H35.5385C40.2092 75 44 71.1818 44 66.4773V8.52273C44 3.81818 40.2092 0 35.5385 0ZM22 71.5909C19.1908 71.5909 16.9231 69.3068 16.9231 66.4773C16.9231 63.6477 19.1908 61.3636 22 61.3636C24.8092 61.3636 27.0769 63.6477 27.0769 66.4773C27.0769 69.3068 24.8092 71.5909 22 71.5909ZM37.2308 57.9545H6.76923V10.2273H37.2308V57.9545Z" fill="#24A05A"/>
</svg>
